<svg width="375" height="812" viewBox="0 0 375 812" fill="none" xmlns="http://www.w3.org/2000/svg">
<g clip-path="url(#clip0_6_455)">
<rect width="375" height="812" fill="#093663"/>
<path d="M526 -11.493V266.702H-114V-11.493C-103.504 -18.392 -90.089 -23 -72.963 -23C-5.532 -23 6.20499 44.059 6.20499 44.059C6.20499 44.059 37.693 23.195 66.429 44.059C94.756 64.667 85.296 96.309 85.053 97.128C85.258 96.719 89.187 89.666 102.87 91.24C116.95 92.879 120.009 106.843 120.009 106.843C120.009 106.843 133.155 91.521 149.232 95.067C165.347 98.625 171.888 120.078 171.888 120.078C186.224 112.244 202.941 123.931 208.163 128.091C213.321 123.931 229.82 112.244 243.952 120.078C243.952 120.078 250.403 98.625 266.301 95.067C282.16 91.521 295.139 106.843 295.139 106.843C295.139 106.843 298.147 92.878 312.035 91.24C325.936 89.614 329.622 97.141 329.622 97.141C329.622 97.141 319.689 64.936 348.003 44.059C376.329 23.195 407.408 44.059 407.408 44.059C407.408 44.059 418.992 -23 485.514 -23C502.423 -23 515.645 -18.392 526 -11.493Z" fill="#06457A"/>
<path d="M526 83.4707V286.788H-114V276.408C-114 276.397 -114 276.397 -114 276.397V107.014L-90.141 107.163L-89.731 150.835L-83.817 150.996L-83.958 90.5057H-64.105L-63.939 159.164H-52.317L-52.483 109.764L-38.249 109.936L-38.287 95.3517L-28.405 103.841L-28.341 110.016L-23.234 110.05L-22.927 148.99L-8.48901 132.264L5.988 151.362L5.975 209.171L14.18 208.953L14.142 122.95L41.099 105.834C41.189 105.834 68.171 122.95 68.171 122.95L68.12 209.549L76.325 209.801V151.362L105.227 151.751L105.547 96.0497L134.795 96.9887L134.629 159.163H146.251L146.417 118.08L166.257 100.139L166.129 150.994L172.03 150.833L172.452 83.6177L209.802 83.3887V106.978L239.857 107.161L240.279 150.833L246.18 150.994L246.052 90.5037H265.892L266.058 159.162H277.68L277.514 109.762L291.748 109.934L291.722 95.3497L301.591 103.839L301.668 110.014L306.762 110.048L307.082 148.988L321.508 132.262L335.985 151.36V209.169L344.19 208.951L344.139 122.948L371.096 105.832C371.186 105.832 398.168 122.948 398.168 122.948L398.129 209.547L406.334 209.799L406.321 151.36L435.236 151.749L435.543 96.0477L464.791 96.9867L464.624 159.161H476.246L476.412 118.078L496.265 100.137L496.124 150.992L502.038 150.831L502.448 83.6157L526 83.4707Z" fill="#002E5B"/>
<path d="M526 238.3V461.11H-114V406.864C-114 406.838 -114 406.838 -114 406.838V238.3H-102.826L-103.03 151.12L-65.923 149.814L-65.526 227.907L-28.854 227.369L-28.867 309.302L-18.461 308.956L-18.512 187.522C-18.512 187.522 15.69 163.535 15.83 163.535L50.019 187.522L49.968 308.111L60.374 308.418L60.361 227.368L78.729 200.565L97.033 224.027L97.443 169.435L103.907 169.371L103.997 160.744L116.528 148.827L116.49 169.269L134.538 169.026L134.333 238.3H149.066L149.284 142.018H174.462L174.296 226.844L181.784 226.614L182.309 165.379H182.603V132.048L230.001 132.381L230.526 226.615L238.014 226.845L237.848 155.549L263.026 180.701L263.244 238.301H277.977L277.772 151.12L314.866 149.814L315.276 227.907L351.948 227.369L351.935 309.302L362.341 308.956L362.29 187.522C362.29 187.522 396.492 163.535 396.62 163.535L430.822 187.522L430.771 308.111L441.177 308.418L441.164 227.368L459.532 200.565L477.836 224.027L478.233 169.435L484.71 169.371L484.8 160.744L497.318 148.827L497.292 169.269L515.34 169.026L515.135 238.3H526Z" fill="#001B3E"/>
<path d="M275.302 293.756C275.302 293.756 285.101 298.172 293.882 297.56L286.589 290.839L275.302 293.756Z" fill="#F0882C"/>
<path d="M293.879 297.562C293.879 297.562 287.513 297.367 283.996 295.185C279.992 292.704 275.66 293.669 275.317 293.752C278.152 292.43 279.912 290.708 281.004 289.067C281.809 287.856 282.251 286.692 282.491 285.76C282.816 284.556 282.795 283.751 282.795 283.751C282.795 283.751 290.79 281.589 289.685 286.514C289.646 286.686 289.615 286.859 289.582 287.03C289.581 287.038 289.581 287.038 289.581 287.038C289.42 288.111 289.487 289.172 289.693 290.171C290.559 294.295 293.879 297.562 293.879 297.562Z" fill="#FD9030"/>
<path d="M360.403 210.611C357.072 235.174 338.553 264.719 315.567 278.178C314.336 278.893 313.085 279.577 311.83 280.198C303.487 284.347 294.659 286.325 285.81 285.157C250.795 280.554 228.952 228.537 233.63 193.907C236.115 175.464 246.417 159.951 260.776 150.175C260.851 150.122 260.924 150.071 261.001 150.033L260.999 150.018C273.572 141.528 289.213 137.419 305.487 139.559C340.486 144.166 365.081 175.982 360.403 210.611Z" fill="#FE9F55"/>
<path d="M349.404 198.097C356.282 193.139 355.03 179.649 346.608 167.966C338.186 156.284 325.783 150.832 318.905 155.791C312.027 160.749 313.279 174.239 321.701 185.922C330.123 197.604 342.527 203.056 349.404 198.097Z" fill="#FCBA8B"/>
<path d="M311.829 280.198C303.486 284.347 294.657 286.325 285.808 285.157C250.794 280.554 228.95 228.537 233.628 193.908C236.113 175.464 246.415 159.951 260.774 150.175C260.849 150.122 260.923 150.071 260.999 150.033C252.934 187.191 259.494 261.697 311.829 280.198Z" fill="#FD9030"/>
<path d="M139.659 199.534C139.659 199.534 149.838 202.987 158.518 201.534L150.613 195.545L139.659 199.534Z" fill="#F0882C"/>
<path d="M158.517 201.536C158.517 201.536 152.16 201.954 148.45 200.12C144.226 198.036 140.008 199.413 139.674 199.528C142.368 197.939 143.955 196.056 144.884 194.319C145.569 193.035 145.896 191.834 146.046 190.883C146.254 189.654 146.156 188.854 146.156 188.854C146.156 188.854 153.906 185.934 153.28 190.942C153.257 191.117 153.243 191.292 153.227 191.466C153.226 191.474 153.226 191.474 153.226 191.474C153.169 192.557 153.338 193.607 153.639 194.582C154.898 198.603 158.517 201.536 158.517 201.536Z" fill="#FD9030"/>
<path d="M216.372 108.591C215.418 133.361 199.825 164.549 178.24 180.157C177.083 180.987 175.904 181.788 174.715 182.527C166.809 187.459 158.212 190.276 149.292 189.965C113.997 188.749 87.2528 139.073 88.5796 104.155C89.2797 85.5574 98.0425 69.1263 111.395 58.0149C111.464 57.9549 111.533 57.8966 111.605 57.8519L111.602 57.8365C123.301 48.1771 138.474 42.5839 154.878 43.1493C190.158 44.369 217.698 73.673 216.372 108.591Z" fill="#FE9F55"/>
<path d="M204.221 97.1933C210.59 91.5968 208.047 78.2895 198.54 67.4707C189.034 56.6519 176.164 52.4184 169.795 58.015C163.426 63.6115 165.969 76.9188 175.475 87.7376C184.982 98.5564 197.851 102.79 204.221 97.1933Z" fill="#FCBA8B"/>
<path d="M174.713 182.527C166.808 187.459 158.21 190.276 149.29 189.965C113.995 188.749 87.2514 139.073 88.5782 104.155C89.2783 85.5574 98.0411 69.1263 111.394 58.015C111.463 57.9549 111.531 57.8966 111.604 57.852C107.148 95.613 120.842 169.143 174.713 182.527Z" fill="#FD9030"/>
<path d="M-115 843.5H581.191V348H146.109L-115 368.936V843.5Z" fill="#4D5863"/>
<path d="M43.8088 369.267C43.8088 369.267 50.4516 369.903 55.4898 367.788L49.8594 365.295L43.8088 369.267Z" fill="#0D8AC9"/>
<path d="M55.4892 367.789C55.4892 367.789 51.708 368.948 49.2046 368.368C46.3554 367.711 44.0024 369.144 43.8171 369.261C45.2188 367.918 45.9094 366.554 46.2226 365.371C46.4538 364.498 46.4806 363.725 46.4355 363.13C46.3857 362.357 46.2127 361.888 46.2127 361.888C46.2127 361.888 50.4795 359.019 50.8148 362.134C50.8262 362.243 50.8425 362.351 50.8575 362.458C50.8582 362.463 50.8582 362.463 50.8582 362.463C50.9781 363.126 51.2298 363.736 51.5507 364.282C52.8845 366.533 55.4892 367.789 55.4892 367.789Z" fill="#0D94D7"/>
<path d="M77.2008 303.38C80.1547 318.483 75.1783 339.551 64.3596 352.059C63.7787 352.725 63.1806 353.377 62.5672 353.993C58.4931 358.1 53.6996 361.028 48.2651 362.111C26.7646 366.408 3.52395 340.202 -0.651219 318.913C-2.87885 307.576 0.0742472 296.398 6.55889 287.781C6.59231 287.735 6.62517 287.69 6.66263 287.652L6.65855 287.644C12.3508 280.139 20.7221 274.597 30.7153 272.6C52.2073 268.309 73.0256 282.091 77.2008 303.38Z" fill="#0E9BE1"/>
<path d="M68.2337 298.224C71.2846 293.934 67.8512 286.256 60.5648 281.073C53.2784 275.891 44.8984 275.167 41.8474 279.457C38.7965 283.746 42.2299 291.425 49.5163 296.607C56.8027 301.79 65.1827 302.514 68.2337 298.224Z" fill="#4CB0EF"/>
<path d="M62.5666 353.994C58.4925 358.1 53.6989 361.028 48.2644 362.112C26.7639 366.408 3.52332 340.202 -0.651843 318.913C-2.87948 307.576 0.0736225 296.398 6.55826 287.781C6.59168 287.735 6.62449 287.69 6.66195 287.653C9.35193 311.105 28.1068 353.584 62.5666 353.994Z" fill="#0D94D7"/>
<path d="M65.8088 170.267C65.8088 170.267 72.4516 170.903 77.4898 168.788L71.8594 166.295L65.8088 170.267Z" fill="#0D8AC9"/>
<path d="M77.4892 168.789C77.4892 168.789 73.708 169.947 71.2046 169.368C68.3554 168.711 66.0024 170.144 65.8171 170.261C67.2188 168.917 67.9094 167.553 68.2226 166.371C68.4538 165.498 68.4806 164.725 68.4355 164.13C68.3857 163.357 68.2127 162.888 68.2127 162.888C68.2127 162.888 72.4795 160.018 72.8148 163.134C72.8262 163.243 72.8425 163.351 72.8575 163.458C72.8582 163.463 72.8582 163.463 72.8582 163.463C72.9781 164.126 73.2298 164.736 73.5507 165.282C74.8845 167.533 77.4892 168.789 77.4892 168.789Z" fill="#0D94D7"/>
<path d="M99.2008 104.38C102.155 119.483 97.1783 140.551 86.3596 153.059C85.7787 153.725 85.1806 154.377 84.5672 154.993C80.4931 159.1 75.6996 162.028 70.2651 163.111C48.7646 167.408 25.5239 141.202 21.3488 119.913C19.1211 108.576 22.0742 97.3981 28.5589 88.7808C28.5923 88.7347 28.6252 88.6897 28.6626 88.6524L28.6586 88.6435C34.3508 81.1393 42.7221 75.597 52.7153 73.6005C74.2073 69.3091 95.0256 83.091 99.2008 104.38Z" fill="#0E9BE1"/>
<path d="M90.2337 99.224C93.2846 94.9345 89.8512 87.2559 82.5648 82.0734C75.2784 76.891 66.8984 76.1672 63.8474 80.4568C60.7965 84.7464 64.2299 92.4249 71.5163 97.6074C78.8027 102.79 87.1827 103.514 90.2337 99.224Z" fill="#4CB0EF"/>
<path d="M84.5666 154.994C80.4925 159.1 75.6989 162.028 70.2644 163.112C48.7639 167.408 25.5233 141.202 21.3482 119.913C19.1205 108.576 22.0736 97.3982 28.5583 88.781C28.5917 88.7348 28.6245 88.6898 28.6619 88.6525C31.3519 112.105 50.1068 154.584 84.5666 154.994Z" fill="#0D94D7"/>
<path d="M295.141 164.383C295.141 164.383 301.234 167.105 306.684 166.707L302.143 162.549L295.141 164.383Z" fill="#0D8AC9"/>
<path d="M306.683 166.708C306.683 166.708 302.729 166.6 300.542 165.252C298.051 163.72 295.364 164.328 295.151 164.38C296.908 163.553 297.998 162.481 298.672 161.46C299.169 160.707 299.441 159.983 299.589 159.404C299.788 158.656 299.774 158.156 299.774 158.156C299.774 158.156 304.733 156.798 304.057 159.857C304.033 159.964 304.014 160.072 303.994 160.178C303.993 160.183 303.993 160.183 303.993 160.183C303.895 160.849 303.939 161.508 304.069 162.128C304.615 164.687 306.683 166.708 306.683 166.708Z" fill="#0D94D7"/>
<path d="M347.808 112.592C345.79 127.848 334.352 146.228 320.108 154.63C319.345 155.076 318.57 155.503 317.792 155.892C312.621 158.484 307.143 159.73 301.647 159.023C279.9 156.235 266.234 123.984 269.069 102.476C270.575 91.02 276.94 81.3686 285.835 75.2705C285.881 75.2374 285.927 75.2053 285.974 75.1818L285.973 75.1721C293.762 69.8761 303.464 67.2941 313.572 68.5901C335.31 71.3798 350.643 91.0833 347.808 112.592Z" fill="#0E9BE1"/>
<path d="M340.955 104.844C345.215 101.752 344.411 93.3797 339.158 86.1434C333.906 78.9072 326.195 75.5477 321.935 78.6398C317.675 81.7318 318.479 90.1045 323.731 97.3407C328.984 104.577 336.695 107.936 340.955 104.844Z" fill="#4CB0EF"/>
<path d="M317.791 155.892C312.62 158.484 307.143 159.73 301.647 159.023C279.899 156.235 266.234 123.984 269.069 102.476C270.574 91.0199 276.939 81.3686 285.834 75.2704C285.881 75.2373 285.926 75.2052 285.973 75.1818C281.041 98.2669 285.263 144.51 317.791 155.892Z" fill="#0D94D7"/>
<path d="M331.17 350.718C331.17 350.718 337.928 353.763 343.983 353.341L338.954 348.706L331.17 350.718Z" fill="#E46AA9"/>
<path d="M343.981 353.342C343.981 353.342 339.591 353.208 337.166 351.703C334.405 349.992 331.418 350.658 331.181 350.715C333.136 349.803 334.35 348.616 335.102 347.484C335.658 346.649 335.962 345.846 336.128 345.204C336.352 344.374 336.338 343.818 336.338 343.818C336.338 343.818 341.851 342.327 341.089 345.723C341.062 345.842 341.041 345.961 341.018 346.08C341.017 346.085 341.017 346.085 341.017 346.085C340.906 346.825 340.952 347.557 341.095 348.245C341.692 351.089 343.981 353.342 343.981 353.342Z" fill="#DF74AB"/>
<path d="M389.854 293.382C387.557 310.32 374.787 330.693 358.936 339.975C358.087 340.468 357.225 340.939 356.359 341.368C350.606 344.229 344.518 345.593 338.416 344.788C314.271 341.613 299.208 305.743 302.434 281.864C304.148 269.145 311.252 258.448 321.153 251.707C321.205 251.67 321.256 251.635 321.308 251.609L321.307 251.598C329.977 245.744 340.763 242.911 351.985 244.386C376.12 247.563 393.08 269.502 389.854 293.382Z" fill="#E286B4"/>
<path d="M382.27 284.752C387.012 281.333 386.149 272.031 380.341 263.975C374.533 255.918 365.981 252.159 361.238 255.578C356.495 258.998 357.358 268.3 363.166 276.356C368.974 284.412 377.527 288.171 382.27 284.752Z" fill="#E7A1C2"/>
<path d="M356.359 341.368C350.605 344.229 344.517 345.593 338.415 344.787C314.27 341.613 299.207 305.743 302.433 281.864C304.147 269.145 311.251 258.448 321.153 251.707C321.204 251.67 321.255 251.635 321.308 251.609C315.746 277.232 320.27 328.61 356.359 341.368Z" fill="#DF74AB"/>
<path d="M93.0523 295.731C93.0523 295.731 100.287 297.34 106.13 295.698L100.265 292.18L93.0523 295.731Z" fill="#E46AA9"/>
<path d="M106.129 295.699C106.129 295.699 101.803 296.459 99.1229 295.478C96.0722 294.364 93.2826 295.621 93.0623 295.725C94.7911 294.436 95.7389 293.027 96.2459 291.766C96.6202 290.836 96.7554 289.987 96.7872 289.325C96.8379 288.467 96.7114 287.926 96.7114 287.926C96.7114 287.926 101.807 285.346 101.75 288.826C101.748 288.948 101.751 289.069 101.753 289.19C101.753 289.195 101.753 289.195 101.753 289.195C101.795 289.942 101.989 290.649 102.268 291.295C103.43 293.958 106.129 295.699 106.129 295.699Z" fill="#DF74AB"/>
<path d="M138.871 227.674C140.062 244.725 131.694 267.267 118.058 279.574C117.327 280.229 116.578 280.866 115.818 281.461C110.765 285.431 105.081 288.002 98.9429 288.453C74.656 290.247 52.6236 258.183 50.9337 234.146C50.0291 221.344 54.8132 209.428 63.1397 200.816C63.1829 200.77 63.2253 200.725 63.2717 200.689L63.2684 200.679C70.5693 193.186 80.5547 188.222 91.8429 187.388C116.12 185.598 137.182 203.637 138.871 227.674Z" fill="#E286B4"/>
<path d="M129.693 220.764C133.643 216.453 130.909 207.52 123.586 200.81C116.263 194.101 107.125 192.157 103.176 196.468C99.2261 200.779 101.96 209.712 109.283 216.421C116.605 223.131 125.743 225.075 129.693 220.764Z" fill="#E7A1C2"/>
<path d="M115.817 281.461C110.765 285.431 105.08 288.002 98.9421 288.453C74.6553 290.248 52.623 258.183 50.933 234.146C50.0285 221.344 54.8126 209.428 63.1391 200.816C63.1822 200.77 63.2245 200.725 63.2709 200.689C63.0279 226.908 77.8897 276.296 115.817 281.461Z" fill="#DF74AB"/>
<path d="M250.521 422.026L256.78 424.27C253.019 425.744 249.057 426.871 244.862 428.061C243.484 428.453 242.076 428.853 240.639 429.277L235.29 426.723C236.769 426.288 238.218 425.877 239.634 425.473C243.544 424.362 247.238 423.314 250.521 422.026Z" fill="#E286B4"/>
<path d="M103.919 425.229C101.623 426.869 100.146 428.65 99.1252 431L92.3269 430.584C93.4713 427.947 95.1654 425.925 97.8177 424.028L103.919 425.229Z" fill="#0E9BE1"/>
<path d="M30.4417 413.364L35.0577 412.234C37.1963 413.463 40.0271 414.844 42.7641 416.18L38.392 417.438C35.5921 416.072 32.697 414.658 30.4417 413.364Z" fill="#FFC430"/>
<path d="M26.8452 374.442L34.5516 377.332C31.7066 378.399 30.6984 379.269 30.6984 380.656H19.7991C19.7991 378.185 21.9722 376.269 26.8452 374.442Z" fill="#FE9F55"/>
<path d="M174.544 406.118L168.338 409.476C165.031 408.617 162.569 408.4 158.93 408.648L156.984 404.626C163.464 404.187 168.879 404.646 174.544 406.118Z" fill="#0E9BE1"/>
<path d="M84.7068 388.478C80.9975 386.161 74.4843 383.543 66.3644 381.107L73.9603 377.548C79.2995 379.149 89.1508 382.394 95.1322 386.132L84.7068 388.478Z" fill="#E286B4"/>
<path d="M312.623 369.574L320.836 370.435C319.115 372.057 316.815 373.441 314.378 374.907C313.578 375.389 312.76 375.881 311.943 376.394L304.2 375.178C305.041 374.65 305.882 374.144 306.704 373.648C308.976 372.28 311.121 370.991 312.623 369.574Z" fill="#E286B4"/>
<path d="M346.354 388.788L350.97 387.842C353.108 388.872 355.939 390.029 358.676 391.149L354.304 392.205C351.504 391.058 348.608 389.874 346.354 388.788Z" fill="#FE9F55"/>
<path d="M260.973 397.172L258.447 395.632C261.924 395.068 265.879 394.301 269.702 393.56L272.597 395.035C268.685 395.794 264.639 396.578 260.973 397.172Z" fill="#FFC430"/>
<path d="M323.702 415.452L329.283 417.206C326.438 418.1 324.333 420.623 324.333 421.786L316.657 420.658C316.656 418.589 318.829 416.983 323.702 415.452Z" fill="#0E9BE1"/>
</g>
<defs>
<clipPath id="clip0_6_455">
<rect width="375" height="812" fill="white"/>
</clipPath>
</defs>
</svg>
