<svg width="270" height="240" viewBox="0 0 270 240" fill="none" xmlns="http://www.w3.org/2000/svg">
<path opacity="0.1" d="M135.55 213.133C110.285 213.133 89.8149 216.683 89.8149 221.058C89.8149 225.433 110.301 228.982 135.55 228.982C160.815 228.982 181.285 225.433 181.285 221.058C181.285 216.683 160.799 213.133 135.55 213.133Z" fill="#252A2D"/>
<path d="M110.799 217.71C107.125 216.496 104.961 215.141 102.86 212.728C97.349 206.47 93.6908 198.888 92.6167 191.088C91.7294 184.627 102.517 185.685 112.558 184.736C127.688 183.303 122.878 214.347 116.776 217.337C115.515 217.944 112.215 218.395 110.799 217.71Z" fill="#BFC2D0"/>
<path d="M198.859 126.323C199.809 125.451 200.774 123.894 199.793 122.54C199.528 122.166 199.155 121.901 198.797 121.668C192.259 117.433 177.252 119.488 171.773 124.268C169.36 126.369 164.083 129.592 161.997 132.332C158.168 137.361 154.665 143.775 155.179 150.298C155.599 155.654 159.008 160.947 163.6 163.672C170.683 167.891 179.759 166.334 184.164 159.188C186.203 155.872 187.558 151.731 188.538 147.979C189.472 144.398 190.111 139.79 190.266 136.209C190.5 134.372 191.932 132.457 195.139 129.67C196.399 128.549 197.629 127.444 198.859 126.323Z" fill="#9699A3"/>
<path d="M159.958 217.711C163.507 216.497 165.593 215.22 168.115 211.826C174.357 203.435 176.054 198.313 177.549 190.84C178.81 184.519 167.119 185.671 157.436 184.581C142.835 182.931 148.283 214.348 154.183 217.322C155.397 217.945 158.573 218.396 159.958 217.711Z" fill="#BFC2D0"/>
<path d="M135.067 135.228C110.643 135.306 93.3791 154.627 91.6979 175.52C91.0908 187.274 92.5385 201.037 102.283 205.536C109.273 208.759 114.285 208.712 119.92 209.475C124.45 210.098 125.306 211.686 135.051 211.655C143.877 211.624 145.387 210.223 149.621 209.491C154.992 208.526 161.203 208.588 167.508 205.396C177.657 200.243 178.56 187.274 177.859 175.52C175.727 154.425 158.136 135.151 135.067 135.228Z" fill="#BFC2D0"/>
<path d="M135.052 158.629C127.362 158.302 119.967 160.87 114.862 166.553C110.659 171.255 107.063 178.977 107.172 186.637C107.25 192.444 108.915 199.683 112.06 203.139C116.465 207.981 123.283 211.609 129.852 212.122C135.472 212.558 141.994 212.2 147.38 210.488C151.739 209.102 156.596 206.502 158.993 202.485C161.826 197.753 163.025 191.868 162.698 186.403C162.324 180.222 158.557 171.27 154.199 166.709C149.435 161.742 142.975 158.971 135.052 158.629Z" fill="#F0CEA9"/>
<path d="M108.604 215.641C105.086 216.98 103.965 218.334 103.903 219.938C103.825 221.993 104.837 222.195 107.312 222.662C109.662 223.114 116.403 223.098 119.718 222.616C121.96 222.289 123.096 222.195 123.112 220.218C123.112 218.91 123.096 217.26 119.22 215.563C115.749 214.037 113.71 213.71 108.604 215.641Z" fill="#E0634A"/>
<path d="M161.421 215.609C164.94 216.948 166.06 218.287 166.123 219.906C166.2 221.961 165.189 222.164 162.714 222.646C160.363 223.082 153.623 223.067 150.307 222.584C148.065 222.257 146.929 222.164 146.929 220.186C146.913 218.879 146.929 217.213 150.805 215.516C154.261 213.99 156.316 213.679 161.421 215.609Z" fill="#E0634A"/>
<path d="M114.426 81.8435C91.5271 87.5572 77.3148 109.602 82.6697 131.087C84.7401 139.401 89.4412 146.422 95.7612 151.56C105.755 159.702 117.383 159.095 131.424 155.592C145.419 152.105 158.573 146.562 163.601 134.73C166.792 127.195 167.679 118.757 165.593 110.396C160.223 88.9272 137.324 76.1298 114.426 81.8435Z" fill="#BFC2D0"/>
<path d="M86.4057 140.506C84.7712 137.61 83.5103 134.45 82.6697 131.087C77.3148 109.603 91.5271 87.5418 114.426 81.8437C134.46 76.8461 154.51 86.016 162.791 102.799C159.647 100.308 155.786 98.362 150.821 97.8949C143.784 97.241 139.613 101.585 135.783 105.586C133.199 108.279 130.771 110.817 127.72 111.564C124.388 112.389 120.808 111.393 117.134 110.381C112.091 108.98 106.86 107.532 101.895 110.677C93.006 116.281 91.1691 126.899 89.9704 133.89C89.9393 134.092 89.8926 134.31 89.8615 134.512C89.5035 136.536 88.2893 138.576 86.4057 140.506Z" fill="#9699A3"/>
<path opacity="0.7" d="M156.112 115.379C151.754 116.469 149.045 120.672 150.073 124.783C151.1 128.893 155.459 131.337 159.817 130.247C164.176 129.157 166.885 124.954 165.857 120.844C164.83 116.734 160.471 114.289 156.112 115.379Z" fill="#E0634A"/>
<path opacity="0.7" d="M104.961 128.176C100.602 129.266 97.8933 133.469 98.9207 137.58C99.9481 141.69 104.307 144.134 108.665 143.044C113.024 141.954 115.733 137.751 114.705 133.641C113.678 129.531 109.319 127.086 104.961 128.176Z" fill="#E0634A"/>
<path d="M132.242 126.669C129.55 127.36 127.227 129.096 127.447 129.729C127.506 130.479 131.903 137.171 134.389 136.48C136.874 135.789 138.007 127.816 137.933 127.066C137.845 126.596 134.86 125.993 132.242 126.669Z" fill="#FBDD00"/>
<path d="M132.242 126.669C129.55 127.36 127.227 129.096 127.447 129.729C127.506 130.479 131.903 137.171 134.389 136.48C136.874 135.789 138.007 127.816 137.933 127.066C137.845 126.596 134.86 125.993 132.242 126.669Z" fill="#040000" fill-opacity="0.45"/>
<path d="M132.404 126.566C129.683 127.184 127.08 128.905 127.3 129.523C127.345 130.288 132.007 136.083 134.168 135.656C136.33 135.038 138.066 127.89 138.022 127.14C137.933 126.684 135.036 125.978 132.404 126.566Z" fill="#141315"/>
<path d="M135.933 133.759C135.698 130.391 133.301 127.743 130.345 127.743C129.815 127.743 129.301 127.861 128.815 128.023C127.815 128.626 127.183 129.229 127.301 129.537C127.345 130.302 132.007 136.098 134.169 135.671C134.801 135.495 135.404 134.744 135.933 133.759Z" fill="#E7948E"/>
<path d="M132.006 126.727C134.639 126.051 137.639 126.404 137.742 127.036C138.036 127.713 135.771 130.655 133.301 131.214C130.845 131.787 127.683 130.36 127.388 129.684C127.256 129.257 129.462 127.375 132.006 126.727Z" fill="#141315"/>
<path d="M133.212 130.258C130.506 130.92 127.227 129.949 127.197 129.625C126.947 128.802 128.521 123.771 131.433 123.08C134.095 122.462 137.86 126.095 138.11 126.934C138.242 127.654 135.521 129.699 133.212 130.258Z" fill="#FBDD00"/>
<path d="M113.383 115.549C110.768 116.234 109.367 119.597 110.269 123.022C111.172 126.463 114.037 128.689 116.652 127.988C119.267 127.288 120.668 123.94 119.765 120.515C118.862 117.09 115.998 114.864 113.383 115.549Z" fill="#332F35"/>
<path d="M142.694 108.201C140.079 108.886 138.678 112.249 139.581 115.674C140.484 119.115 143.348 121.341 145.979 120.64C148.61 119.94 149.995 116.593 149.092 113.168C148.174 109.727 145.31 107.501 142.694 108.201Z" fill="#332F35"/>
<path d="M88.9274 185.624C97.4735 189.049 106.596 183.787 112.822 172.063C119.049 160.34 116.854 137.999 107.327 132.13C107.327 132.13 102.937 129.561 99.6373 142.748C97.458 151.482 80.8327 152.213 79.852 169.495C79.3072 179.303 84.8023 183.973 88.9274 185.624Z" fill="#9699A3"/>
<path d="M192.805 95.2995C192.362 95.3811 192.141 95.4219 191.918 95.5422C191.695 95.6625 191.525 95.8389 191.187 96.1917L173.204 114.932C173.035 115.108 172.94 115.343 172.94 115.588C172.94 116.397 173.947 116.905 174.661 116.522C177.871 114.798 185.066 112.675 191.877 122.763C192.119 123.122 192.24 123.301 192.412 123.445C192.583 123.59 192.733 123.658 193.032 123.793C193.986 124.224 195.699 124.838 196.897 124.357C200.564 122.868 207.76 121.196 214.732 126.067C216.178 127.077 216.902 127.582 217.525 127.499C218.148 127.415 218.647 126.815 219.647 125.616L233.195 109.354C233.529 108.953 233.696 108.752 233.791 108.515C233.802 108.488 233.812 108.46 233.821 108.432C233.903 108.19 233.906 107.929 233.913 107.408C233.921 106.709 233.925 106.359 233.768 106.024C233.752 105.99 233.729 105.946 233.71 105.913C233.527 105.591 233.268 105.412 232.748 105.054C229.152 102.576 218.072 96.2731 209.444 105.648C209.429 105.663 206.291 92.8123 192.805 95.2995Z" fill="#3AF100"/>
<path d="M191.854 94.0328L173.08 111.158L172.925 115.206C172.925 115.206 182.669 106.27 192.943 121.138C192.943 121.138 195.138 122.399 196.882 121.683C200.422 120.245 207.25 118.637 213.991 122.909C215.894 124.115 216.846 124.718 217.597 124.601C218.347 124.483 218.961 123.746 220.189 122.272L233.884 105.834V101.801C233.884 101.801 218.473 94.3441 209.428 104.183C209.428 104.199 206.144 90.7478 191.854 94.0328Z" fill="#E5DFDC"/>
<path d="M191.854 90.0007L172.893 111.423C172.893 111.423 183.603 101.257 194.593 118.834C194.593 118.834 206.408 110.863 217.398 121.574L233.884 101.786C233.884 101.786 222.068 86.4043 209.428 100.136C209.428 100.167 206.144 86.7157 191.854 90.0007Z" fill="#FCF7F5"/>
<path d="M194.594 118.85C194.594 118.85 194.998 106.348 186.826 102.222L204.105 83.9447C204.105 83.9447 211.608 87.6967 209.413 100.152L194.594 118.85Z" fill="#EFE8E6"/>
<path fill-rule="evenodd" clip-rule="evenodd" d="M135.701 106.575C145.428 102.92 155.493 101.326 156.487 101.939C156.982 102.246 157.696 105.074 157.403 105.579C157.341 105.685 157.244 105.807 157.129 105.952C156.699 106.494 156.011 107.361 155.937 108.973C155.924 109.265 155.992 109.885 156.081 110.706C156.398 113.593 156.986 118.971 155.285 121.35C153.122 124.376 144.151 126.175 140.874 125.421C137.111 124.555 134.874 119.54 133.455 116.36C133.194 115.774 132.96 115.25 132.75 114.826C132.065 113.444 129.369 113.997 129.022 114.085C128.675 114.172 126.039 114.965 126.092 116.506C126.108 116.978 126.151 117.548 126.199 118.185C126.461 121.659 126.873 127.139 123.969 129.688C121.443 131.907 112.692 134.581 109.352 132.944C106.726 131.657 104.692 126.644 103.6 123.953C103.289 123.187 103.055 122.61 102.905 122.359C102.074 120.973 101.058 120.538 100.421 120.265C100.251 120.193 100.108 120.131 100.003 120.067C99.5086 119.759 98.7953 116.933 99.0849 116.428C99.6693 115.418 109.285 112.043 119.581 110.644C120.288 110.548 120.784 110.549 121.326 110.55C122.359 110.551 124.733 110.257 127.889 109.59C130.981 108.679 133.212 107.811 134.12 107.32C134.597 107.062 135.033 106.826 135.701 106.575ZM122.528 126.818C124.013 124.594 123.214 118.652 122.873 116.661C122.265 113.104 118.012 113.403 113.112 114.64C108.151 115.892 104.805 117.301 105.405 119.929C106.405 124.309 108.851 129.02 110.422 129.946C113.417 131.713 120.875 129.293 122.528 126.818ZM140.782 122.21C138.42 120.958 136.304 115.348 135.658 113.434C134.506 110.015 138.393 108.259 143.291 107.023C148.252 105.77 151.866 105.423 152.585 108.021C153.783 112.35 153.867 117.658 152.923 119.219C151.125 122.196 143.412 123.604 140.782 122.21Z" fill="#3D4750"/>
<path opacity="0.35" d="M122.873 116.661C123.214 118.653 124.013 124.594 122.528 126.818C120.875 129.293 113.417 131.714 110.422 129.947C108.851 129.021 106.405 124.309 105.405 119.929C104.805 117.301 108.151 115.892 113.112 114.64C118.012 113.403 122.265 113.105 122.873 116.661ZM135.658 113.434C136.304 115.349 138.42 120.958 140.782 122.211C143.412 123.605 151.125 122.196 152.923 119.219C153.867 117.658 153.783 112.35 152.585 108.021C151.866 105.423 148.252 105.771 143.291 107.023C138.393 108.259 134.505 110.015 135.658 113.434Z" fill="#C9EAF4"/>
</svg>
