<svg width="162" height="141" viewBox="0 0 162 141" fill="none" xmlns="http://www.w3.org/2000/svg">
<path opacity="0.1" d="M81.3298 124.683C66.171 124.683 53.8889 126.76 53.8889 129.319C53.8889 131.878 66.1804 133.955 81.3298 133.955C96.4887 133.955 108.771 131.878 108.771 129.319C108.771 126.76 96.4793 124.683 81.3298 124.683Z" fill="#252A2D"/>
<path d="M66.4792 127.361C64.2749 126.65 62.9767 125.858 61.7158 124.446C58.4095 120.785 56.2145 116.349 55.5701 111.786C55.0377 108.007 61.5103 108.626 67.5346 108.071C76.6131 107.233 73.7271 125.393 70.0658 127.142C69.3092 127.497 67.3291 127.761 66.4792 127.361Z" fill="#BFC2D0"/>
<path d="M119.315 73.8988C119.885 73.3888 120.464 72.478 119.876 71.6856C119.717 71.467 119.493 71.3122 119.278 71.1756C115.355 68.6983 106.352 69.9005 103.064 72.6966C101.616 73.9261 98.4499 75.8114 97.1984 77.4143C94.9007 80.3561 92.7992 84.1085 93.1074 87.9246C93.3596 91.0576 95.4051 94.1542 98.1604 95.748C102.41 98.2162 107.855 97.3054 110.499 93.125C111.722 91.1851 112.535 88.7625 113.123 86.5675C113.683 84.4728 114.066 81.7769 114.16 79.6821C114.3 78.6074 115.159 77.4872 117.083 75.8569C117.84 75.2012 118.578 74.5545 119.315 73.8988Z" fill="#AAAEBD"/>
<path d="M95.975 127.361C98.1045 126.651 99.3561 125.904 100.869 123.918C104.615 119.009 105.633 116.013 106.529 111.641C107.286 107.944 100.271 108.617 94.4619 107.98C85.701 107.015 88.97 125.394 92.5099 127.133C93.2384 127.498 95.1438 127.762 95.975 127.361Z" fill="#BFC2D0"/>
<path d="M81.04 79.1087C66.3856 79.1542 56.0275 90.4568 55.0188 102.679C54.6545 109.556 55.5231 117.607 61.3699 120.239C65.5636 122.124 68.5711 122.097 71.9522 122.543C74.6701 122.907 75.1838 123.836 81.0307 123.818C86.3265 123.8 87.2324 122.98 89.7729 122.552C92.9952 121.987 96.7219 122.024 100.505 120.157C106.594 117.142 107.136 109.556 106.716 102.679C105.436 90.3384 94.8819 79.0631 81.04 79.1087Z" fill="#BFC2D0"/>
<path d="M65.1623 126.15C63.0514 126.933 62.379 127.726 62.3416 128.664C62.2949 129.866 62.902 129.984 64.3871 130.257C65.7974 130.522 69.8416 130.513 71.831 130.23C73.176 130.039 73.8578 129.984 73.8672 128.828C73.8672 128.063 73.8578 127.097 71.5322 126.104C69.4494 125.212 68.2258 125.021 65.1623 126.15Z" fill="#868686"/>
<path d="M96.8529 126.131C98.9637 126.915 99.6362 127.698 99.6736 128.645C99.7203 129.847 99.1132 129.966 97.6281 130.248C96.2178 130.503 92.1735 130.494 90.1841 130.212C88.8392 130.02 88.1574 129.966 88.1574 128.809C88.148 128.044 88.1574 127.069 90.483 126.077C92.5565 125.184 93.7894 125.002 96.8529 126.131Z" fill="#868686"/>
<path d="M68.6554 47.8785C54.9162 51.221 46.3888 64.1174 49.6018 76.6859C50.844 81.5494 53.6647 85.657 57.4567 88.6625C63.453 93.4258 70.43 93.0706 78.8546 91.0214C87.2513 88.9813 95.1436 85.739 98.1604 78.8171C100.075 74.409 100.608 69.4727 99.356 64.5819C96.1337 52.0224 82.3945 44.5359 68.6554 47.8785Z" fill="#BFC2D0"/>
<path opacity="0.25" d="M68.6554 47.8785C54.9162 51.221 46.3888 64.1174 49.6018 76.6859C50.844 81.5494 53.6647 85.657 57.4567 88.6625C63.453 93.4258 70.43 93.0706 78.8546 91.0214C87.2513 88.9813 95.1436 85.739 98.1604 78.8171C100.075 74.409 100.608 69.4727 99.356 64.5819C96.1337 52.0224 82.3945 44.5359 68.6554 47.8785Z" fill="url(#paint0_linear_9_4931)"/>
<path d="M79.345 74.1015C77.7302 74.5059 76.336 75.5213 76.4683 75.8913C76.5036 76.3301 79.142 80.2452 80.6333 79.8408C82.1246 79.4363 82.804 74.7727 82.7599 74.3338C82.7069 74.0585 80.9157 73.7057 79.345 74.1015Z" fill="#FBDD00"/>
<path d="M79.345 74.1015C77.7302 74.5059 76.336 75.5213 76.4683 75.8913C76.5036 76.3301 79.142 80.2452 80.6333 79.8408C82.1246 79.4363 82.804 74.7727 82.7599 74.3338C82.7069 74.0585 80.9157 73.7057 79.345 74.1015Z" fill="#040000" fill-opacity="0.45"/>
<path d="M79.4422 74.0413C77.8098 74.4027 76.2479 75.4094 76.3803 75.7708C76.4068 76.2183 79.204 79.6085 80.5011 79.3589C81.7983 78.9975 82.8395 74.8157 82.813 74.3769C82.7601 74.1101 81.0217 73.6971 79.4422 74.0413Z" fill="#141315"/>
<path d="M81.56 78.249C81.4188 76.2786 79.9805 74.7297 78.2068 74.7297C77.8892 74.7297 77.5803 74.7986 77.2891 74.8932C76.6891 75.246 76.3097 75.5988 76.3802 75.7795C76.4067 76.2269 79.2039 79.6171 80.5011 79.3676C80.8805 79.2644 81.2423 78.8255 81.56 78.249Z" fill="#E7948E"/>
<path d="M79.2039 74.1356C80.7834 73.7398 82.5834 73.9463 82.6452 74.3163C82.8217 74.7121 81.4628 76.433 79.9803 76.76C78.5067 77.0955 76.6096 76.2609 76.4331 75.8651C76.3537 75.6156 77.6773 74.5142 79.2039 74.1356Z" fill="#141315"/>
<path d="M79.9274 76.2009C78.3038 76.5881 76.336 76.0202 76.3184 75.8309C76.1684 75.3491 77.1125 72.4063 78.8597 72.0019C80.4569 71.6405 82.7158 73.7658 82.8658 74.2563C82.9452 74.6779 81.3128 75.8739 79.9274 76.2009Z" fill="#FBDD00"/>
<path d="M68.0296 67.5962C66.4605 67.9969 65.6199 69.9642 66.1616 71.9679C66.7033 73.9806 68.4219 75.283 69.991 74.8732C71.5601 74.4634 72.4007 72.5052 71.859 70.5015C71.3173 68.4978 69.5987 67.1954 68.0296 67.5962Z" fill="#332F35"/>
<path d="M85.6166 63.2977C84.0475 63.6984 83.2069 65.6657 83.7486 67.6694C84.2903 69.6821 86.0089 70.9845 87.5874 70.5747C89.1659 70.1649 89.9971 68.2067 89.4554 66.203C88.9043 64.1902 87.1857 62.8878 85.6166 63.2977Z" fill="#332F35"/>
<path d="M53.3565 108.59C58.4841 110.594 63.9574 107.515 67.6934 100.657C71.4294 93.7991 70.1124 80.7296 64.3963 77.2961C64.3963 77.2961 61.7625 75.7933 59.7824 83.5075C58.4748 88.6169 48.4996 89.0449 47.9112 99.1544C47.5843 104.892 50.8814 107.625 53.3565 108.59Z" fill="#AAAEBD"/>
<path d="M115.683 55.7502C115.417 55.798 115.285 55.8218 115.151 55.8922C115.017 55.9626 114.915 56.0658 114.712 56.2722L103.922 67.235C103.821 67.3382 103.764 67.4758 103.764 67.6189C103.764 68.0925 104.368 68.3894 104.796 68.1653C106.722 67.1566 111.039 65.915 115.126 71.8164C115.271 72.0261 115.344 72.131 115.447 72.2156C115.55 72.3002 115.639 72.3397 115.819 72.4188C116.391 72.6711 117.419 73.0305 118.138 72.7488C120.339 71.8777 124.656 70.8994 128.839 73.749C129.707 74.3401 130.141 74.6356 130.515 74.5868C130.889 74.5379 131.188 74.1871 131.788 73.4853L139.917 63.9719C140.117 63.7373 140.218 63.62 140.274 63.4812C140.281 63.4653 140.287 63.4492 140.293 63.433C140.342 63.2914 140.344 63.1388 140.347 62.8334C140.353 62.4246 140.355 62.2202 140.261 62.0243C140.251 62.004 140.237 61.9783 140.226 61.9588C140.116 61.7707 139.96 61.6659 139.649 61.4563C137.491 60.0069 130.843 56.3198 125.666 61.8038C125.657 61.8127 123.774 54.2952 115.683 55.7502Z" fill="#3AF100"/>
<path d="M115.112 55.0092L103.848 65.0276L103.755 67.3956C103.755 67.3956 109.602 62.1678 115.766 70.8656C115.766 70.8656 117.083 71.6034 118.129 71.1844C120.253 70.3435 124.35 69.4027 128.394 71.9019C129.536 72.6075 130.107 72.9603 130.558 72.8914C131.008 72.8225 131.377 72.3913 132.114 71.5289L140.33 61.9128V59.5539C140.33 59.5539 131.084 55.1914 125.657 60.9474C125.657 60.9565 123.686 53.0875 115.112 55.0092Z" fill="#E5DFDC"/>
<path d="M115.112 52.6504L103.736 65.1825C103.736 65.1825 110.162 59.2352 116.756 69.5178C116.756 69.5178 123.845 64.8547 130.439 71.1207L140.33 59.5449C140.33 59.5449 133.241 50.5465 125.657 58.5795C125.657 58.5977 123.686 50.7287 115.112 52.6504Z" fill="#FCF7F5"/>
<path d="M116.756 69.527C116.756 69.527 116.999 62.2136 112.096 59.8001L122.463 49.1077C122.463 49.1077 126.965 51.3026 125.648 58.5887L116.756 69.527Z" fill="#EFE8E6"/>
<path fill-rule="evenodd" clip-rule="evenodd" d="M81.4207 62.3463C87.2569 60.208 93.296 59.2757 93.8924 59.6344C94.1893 59.8141 94.6175 61.4684 94.4416 61.7635C94.4046 61.8259 94.3466 61.8971 94.2776 61.9818C94.0192 62.299 93.6064 62.8059 93.5621 63.7493C93.5542 63.92 93.5949 64.2826 93.6488 64.7631C93.8385 66.4521 94.1916 69.5978 93.1709 70.9897C91.873 72.7598 86.4908 73.8123 84.5242 73.3714C82.2667 72.8646 80.9244 69.9311 80.073 68.0703C79.9161 67.7275 79.7759 67.4212 79.6497 67.1731C79.2389 66.3648 77.6212 66.6884 77.4129 66.7396C77.2047 66.7909 75.6233 67.2546 75.655 68.1562C75.6649 68.4321 75.6906 68.7653 75.7194 69.1382C75.8763 71.1702 76.1239 74.3765 74.3815 75.8675C72.866 77.1653 67.6153 78.7296 65.6113 77.7721C64.0353 77.0192 62.815 74.0869 62.1598 72.5125C61.9734 72.0646 61.8328 71.7266 61.7427 71.5799C61.2444 70.7694 60.6345 70.5147 60.2527 70.3552C60.1507 70.3126 60.0649 70.2768 60.002 70.239C59.7051 70.0593 59.2771 68.4059 59.4509 68.1104C59.8015 67.5195 65.5708 65.5448 71.7486 64.7266C72.1729 64.6705 72.4703 64.671 72.7954 64.6715C73.4152 64.6725 74.84 64.5004 76.7332 64.11C78.5886 63.5773 79.9271 63.0694 80.4717 62.7821C80.758 62.6311 81.0196 62.4931 81.4207 62.3463ZM73.517 74.1884C74.4078 72.8874 73.9282 69.4116 73.7239 68.2465C73.3591 66.166 70.807 66.3408 67.8674 67.0642C64.8906 67.7968 62.883 68.6211 63.2432 70.1585C63.843 72.7206 65.3104 75.4768 66.2532 76.0186C68.0504 77.0522 72.525 75.6363 73.517 74.1884ZM84.4693 71.4931C83.0518 70.7601 81.7822 67.4787 81.3949 66.3586C80.7033 64.3586 83.0358 63.3313 85.9744 62.6081C88.9512 61.8755 91.1195 61.6722 91.5508 63.1921C92.27 65.7247 92.3199 68.8299 91.7538 69.743C90.6749 71.4844 86.0471 72.3085 84.4693 71.4931Z" fill="#3D4750"/>
<path opacity="0.35" d="M73.7238 68.2467C73.9281 69.4118 74.4078 72.8876 73.5169 74.1886C72.525 75.6365 68.0503 77.0525 66.2531 76.0188C65.3103 75.4771 63.8429 72.7208 63.2432 70.1587C62.8829 68.6214 64.8905 67.7971 67.8674 67.0645C70.8069 66.341 73.3591 66.1662 73.7238 68.2467ZM81.3948 66.3589C81.7821 67.479 83.0518 70.7604 84.4692 71.4933C86.047 72.3088 90.6749 71.4846 91.7537 69.7432C92.3199 68.8301 92.2699 65.725 91.5507 63.1923C91.1195 61.6724 88.9512 61.8758 85.9743 62.6084C83.0357 63.3316 80.7032 64.3588 81.3948 66.3589Z" fill="#C9EAF4"/>
<defs>
<linearGradient id="paint0_linear_9_4931" x1="73.5952" y1="47.2724" x2="83.5527" y2="89.3921" gradientUnits="userSpaceOnUse">
<stop stop-color="white"/>
<stop offset="1" stop-color="white" stop-opacity="0"/>
</linearGradient>
</defs>
</svg>
