<svg width="270" height="240" viewBox="0 0 270 240" fill="none" xmlns="http://www.w3.org/2000/svg">
<path opacity="0.1" d="M137.879 213.192C109.874 213.192 87.1584 216.792 87.1584 221.235C87.1584 225.678 109.861 229.278 137.879 229.278C165.884 229.278 188.6 225.678 188.6 221.235C188.6 216.792 165.898 213.192 137.879 213.192Z" fill="#252A2D"/>
<path d="M119.676 222.372C116.406 226.392 106.186 225.662 103.576 223.282C101.706 222.192 101.606 218.482 104.206 217.332C108.576 215.402 108.346 213.292 110.116 211.292C114.186 206.682 116.146 207.912 118.016 208.312C122.926 209.352 121.776 219.792 119.666 222.382L119.676 222.372Z" fill="#E0634A"/>
<path d="M162.132 202.881C159.402 205.551 167.952 217.771 171.712 218.971C176.882 220.461 181.142 216.131 182.442 211.671C183.752 207.211 175.952 201.231 170.472 200.431C163.832 199.461 163.502 201.531 162.122 202.871L162.132 202.881Z" fill="#E0634A"/>
<path d="M171.067 194.322C172.217 200.071 172.597 203.732 170.177 206.392C169.927 206.662 169.687 206.892 169.447 207.082C164.237 211.142 149.1 206.464 142.367 200.732C125.21 186.127 160.937 165.364 165.317 176.783C166.441 179.714 170.654 192.261 171.067 194.322Z" fill="#BFC2D0"/>
<path d="M113.626 213.162C109.916 212.622 108.294 211.518 104.187 208.442C99.3634 204.831 90.41 191.494 87.1325 182.846C82.7973 171.408 91.8665 164.912 110.187 173.342C125.347 180.322 127.917 200.002 120.437 209.802C119.197 211.522 116.277 213.032 113.617 213.152C113.611 213.153 113.626 213.162 113.626 213.162Z" fill="#BFC2D0"/>
<path d="M81.681 131.945C87.4264 143.288 92.277 154.908 99.1477 152.213C102.778 150.789 109.767 143.758 111.031 138.197C113.179 128.743 105.199 118.581 100.802 113.432C93.7168 105.133 80.8152 101.392 69.9827 102.988C67.9616 103.286 63.6301 103.018 66.5089 107.656C72.481 117.276 76.6273 121.968 81.681 131.945Z" fill="#9699A3"/>
<path d="M131.196 126.413C131.656 126.443 132.117 126.492 132.566 126.552C145.326 128.352 156.576 132.123 162.966 143.753C164.386 146.332 165.076 149.242 165.016 152.182C164.992 153.387 165.224 155.518 165.611 158.11C166.513 162.271 168.337 165.651 174.915 168.814C177.21 169.922 179.013 171.129 177.558 176.521C176.102 181.914 172.034 189.834 167.158 193.775C160.647 199.036 152.42 200.349 144.026 202.432C134.485 204.8 126.176 203.542 119.636 202.892C110.856 202.022 104.536 200.713 97.796 196.993C87.586 190.663 80.111 169.433 84.8286 150.366C90.2471 128.466 112.433 125.196 131.196 126.413Z" fill="#BFC2D0"/>
<path d="M150.477 195.675C148.295 201.265 142.652 207.929 130.657 207.522C107.677 206.741 86.1847 182.913 94.2926 160.395C99.3176 146.439 119.403 148.385 130.094 153.89C141.105 159.561 156.138 181.169 150.477 195.675Z" fill="#F0CEA9"/>
<path d="M92.6567 104.902C97.0967 83.3224 119.637 69.7524 142.997 74.5424C166.377 79.3624 181.697 100.732 177.257 122.302C172.817 143.862 156.827 152.392 128.187 148.212C99.0667 143.972 88.2167 126.462 92.6567 104.892V104.902Z" fill="#BFC2D0"/>
<mask id="mask0_11_2030" style="mask-type:luminance" maskUnits="userSpaceOnUse" x="91" y="73" width="88" height="77">
<path d="M92.6565 104.902C97.0965 83.3224 119.637 69.7524 142.997 74.5424C166.377 79.3624 181.697 100.732 177.257 122.302C172.817 143.862 156.827 152.392 128.187 148.212C99.0665 143.972 88.2165 126.462 92.6565 104.892V104.902Z" fill="white"/>
</mask>
<g mask="url(#mask0_11_2030)">
<path d="M230.261 110.786C229.907 112.557 197.227 133.106 178.817 122.994C165.606 115.737 170.056 100.657 164.202 92.2929C159.168 85.1167 150.393 82.8194 140.886 85.2419C132.695 87.1042 130.332 85.5417 126.303 81.8177C119.203 74.1087 108.938 75.4577 101.868 82.5964C96.793 86.6342 91.8736 93.1279 84.4494 98.425C66.0428 111.542 35.4789 102.971 35.7379 101.688C37.6567 92.2018 51.8965 21.9217 51.8965 21.9217L143.671 41.6063L237.021 60.5084C237.021 60.5084 231.219 105.933 230.261 110.786Z" fill="#9699A3"/>
<path opacity="0.7" d="M98.6923 103.799C101.321 107.194 106.022 107.94 109.183 105.519C112.335 103.086 112.786 98.3399 110.17 94.9269C107.543 91.5222 102.84 90.7853 99.6794 93.2067C96.5086 95.6265 96.0766 100.386 98.6923 103.799Z" fill="#E0634A"/>
<path opacity="0.7" d="M155.447 115.752C151.177 116.822 146.907 114.442 145.907 110.482C144.907 106.522 147.547 102.452 151.837 101.322C156.117 100.212 160.377 102.632 161.377 106.592C162.377 110.552 159.767 114.692 155.447 115.752Z" fill="#E0634A"/>
<path d="M122.107 92.4722C122.457 91.4422 121.887 90.1822 120.937 89.2722C119.987 88.3322 118.637 87.6822 117.207 87.3922C115.777 87.1122 114.237 87.2622 113.097 87.8122C111.937 88.3522 111.147 89.2322 110.827 90.1822C110.777 90.3622 110.907 90.5722 111.127 90.6322C111.247 90.6722 111.367 90.6522 111.477 90.6222H111.507C112.507 90.1522 113.377 89.8022 114.257 89.6222C115.137 89.4522 116.007 89.4522 116.867 89.6022C117.747 89.7522 118.617 90.0722 119.387 90.5222C120.167 90.9822 120.867 91.5622 121.377 92.4222L121.397 92.4522C121.497 92.6222 121.737 92.6922 121.917 92.6322C122.027 92.6322 122.097 92.5522 122.117 92.4822L122.107 92.4722Z" fill="#332F35"/>
<path d="M151.797 98.3023C152.147 97.2223 151.607 95.9223 150.677 94.9823C149.747 94.0223 148.437 93.3522 147.027 93.0622C145.617 92.7822 144.107 92.9523 142.977 93.5423C141.827 94.1223 141.047 95.0422 140.717 96.0322C140.667 96.2222 140.797 96.4322 141.007 96.4922C141.117 96.5322 141.247 96.5123 141.347 96.4723H141.377C142.367 95.9723 143.227 95.6023 144.087 95.4023C144.957 95.2223 145.807 95.2022 146.657 95.3522C147.517 95.5022 148.367 95.8222 149.127 96.2822C149.887 96.7522 150.567 97.3422 151.067 98.2422L151.087 98.2723C151.187 98.4423 151.417 98.5222 151.597 98.4522C151.707 98.4522 151.777 98.3723 151.797 98.2923V98.3023Z" fill="#332F35"/>
<path d="M128.402 98.4138C131.202 99.2123 133.602 101.094 133.341 101.739C133.255 102.524 129.252 105.558 126.654 104.762C124.054 103.975 122.322 99.4704 122.418 98.6861C122.541 98.1967 125.691 97.6351 128.402 98.4138Z" fill="#FBDD00"/>
<path d="M128.402 98.4138C131.202 99.2123 133.602 101.094 133.341 101.739C133.255 102.524 129.252 105.558 126.654 104.762C124.054 103.975 122.322 99.4704 122.418 98.6861C122.541 98.1967 125.691 97.6351 128.402 98.4138Z" fill="#040000" fill-opacity="0.45"/>
<path d="M127.56 97.3762C130.389 98.0973 133.367 101.591 133.125 102.239C133.06 103.026 129.911 100.902 126.89 100.009C123.885 98.9769 122.254 99.5433 122.319 98.7558C122.44 98.2962 124.818 96.6947 127.549 97.3851L127.56 97.3762Z" fill="#141315"/>
<path d="M126.881 97.8855C129.715 98.6475 133.156 102.604 133.202 102.277C134.076 99.6162 132.373 95.4872 129.35 94.7047C126.582 93.9901 122.556 97.6952 122.27 98.5593C122.101 99.2852 124.489 97.2221 126.881 97.8855Z" fill="#FBDD00"/>
</g>
<path d="M144.196 144.599C143.394 154.252 154.25 160.563 161.567 159.781C177.29 158.1 181.83 146.051 190.251 138.709C199.296 130.822 202.491 131.619 197.39 128.122C192.217 124.575 169.081 120.475 157.279 126.574C148.191 131.27 144.723 138.272 144.196 144.599Z" fill="#9699A3"/>
<path d="M197.553 189.935C197.693 190.045 197.613 190.275 197.473 190.385C196.823 190.895 194.983 192.195 197.023 192.605L193.548 192.853C193.548 192.853 192.483 190.595 194.653 189.375C194.653 189.375 196.493 189.115 197.553 189.935Z" fill="#B51D5B"/>
<path d="M198.068 185.613C198.068 185.613 193.218 187.173 192.388 184.983C191.778 183.373 193.928 182.813 195.148 183.133C197.238 183.673 197.608 184.723 198.048 185.593C198.048 185.593 200.348 189.636 197.968 191.964C197.968 191.964 204.729 192.656 201.219 183.966C198.219 175.456 186.904 179.972 188.658 185.733C189.983 190.088 197.538 187.193 197.538 187.193" fill="#B51D5B"/>
<path d="M188.819 159.581C186.089 162.751 183.649 170.901 193.889 176.901C202.509 181.951 190.399 187.701 190.399 187.701C190.399 187.701 193.299 189.111 197.379 187.431C200.679 186.071 203.759 178.621 200.379 175.921C193.669 170.551 187.319 167.641 197.739 158.891C198.079 158.611 198.049 158.071 197.659 157.851C196.919 157.431 195.599 156.921 193.599 156.941C191.626 156.96 190.107 158.085 188.819 159.581Z" fill="#D32262"/>
<path d="M201.843 185.748C201.843 185.748 204.633 194.998 197.653 195.378C195.793 195.478 194.078 194.348 193.448 192.598L193.404 192.452C193.404 192.452 200.243 194.138 201.833 185.758L201.843 185.748Z" fill="#D32262"/>
<path d="M86.5669 47.6924C86.5669 47.6924 88.6569 51.7124 85.1069 54.8224C85.1069 54.8224 90.3869 54.9424 90.5869 48.6024L86.5769 47.6924H86.5669Z" fill="#B51D5B"/>
<path d="M79.7969 48.3624C79.7969 48.3624 75.8069 45.8024 78.9169 42.6024C82.6269 38.8024 89.3469 42.7824 90.1869 45.9724C90.1869 45.9724 89.6669 47.7024 86.9269 48.5324C86.9269 48.5324 85.2769 44.4524 83.1569 45.4324C82.3169 45.8224 82.8869 47.0424 84.5269 47.6524C84.9069 47.7924 85.3769 47.9224 85.9369 48.0124C85.9369 48.0124 83.4469 49.8124 79.7869 48.3524L79.7969 48.3624Z" fill="#B51D5B"/>
<path d="M86.7466 2.58235C86.7466 2.58235 91.7366 1.85235 94.2966 4.83235C94.4766 5.04235 94.3766 5.37235 94.1166 5.47235C91.5966 6.36235 80.2866 12.4824 85.6066 21.7324C88.8266 27.3424 96.4066 29.3624 97.9466 37.8824C100.237 50.5124 82.2285 50.7416 79.6685 48.2616C79.6685 48.2616 95.3866 47.7423 92.3866 38.5924C89.3866 29.4424 75.0766 26.3824 76.9266 15.6424C78.5366 6.27235 86.7566 2.59235 86.7566 2.59235L86.7466 2.58235Z" fill="#D32262"/>
<path d="M90.4544 49.9848C90.4544 49.9848 90.3066 59.2822 81.2266 58.2822C80.9966 58.2622 80.7866 58.1523 80.6266 57.9923C80.2466 57.6023 79.5966 56.7622 79.4166 55.4522C79.3566 55.0122 79.7566 54.6522 80.1866 54.7322C82.3066 55.1122 88.0166 55.5522 90.3766 50.1322L90.4544 49.9848Z" fill="#D32262"/>
<path d="M52.7663 84.9525C52.3563 83.9225 51.6563 81.2025 54.5063 78.9525C54.6263 78.8525 54.7763 78.8025 54.9363 78.8125C55.7563 78.8425 58.4763 79.0725 59.7263 80.9825C59.8163 81.1225 59.7563 81.3025 59.6063 81.3625C58.3363 81.8525 53.5963 83.6225 58.3563 85.6125C58.3563 85.6125 56.1463 87.2825 53.3063 85.6025C53.0563 85.4525 52.8663 85.2225 52.7563 84.9525H52.7663Z" fill="#4AB4FD"/>
<path d="M58.0863 63.6824C58.0863 63.6824 55.6463 68.7324 66.9163 73.4824C75.87 77.2625 64.8512 88.7324 58.7763 88.7324C57.8463 88.7624 55.3563 88.4924 52.9663 85.3324C52.9663 85.3324 62.6763 85.1824 63.6963 78.4524C63.6963 78.4524 64.7163 75.1324 54.9663 70.3024C54.9663 70.3024 49.8963 64.6424 58.0863 63.6724V63.6824Z" fill="#2BA0E2"/>
<path d="M59.4064 55.4324C59.4064 55.4324 65.4864 54.9624 68.3264 57.5424C68.5664 57.7624 68.4864 58.1724 68.1664 58.2724C64.6764 59.3824 48.8849 64.9766 61.1449 74.1366C61.1449 74.1366 58.4864 72.0324 55.1664 70.5624C49.2664 67.9624 44.9164 61.2724 59.4064 55.4424V55.4324Z" fill="#4AB4FD"/>
<path d="M183.67 75.02C183.67 75.02 186.919 81.8358 190.728 79.5632C190.728 79.5632 188.461 85.003 184.193 81.3653C184.193 81.3653 180.634 76.2456 183.66 75.0218L183.67 75.02Z" fill="#74B516"/>
<path d="M181.263 49.4956C181.263 49.4956 179.168 62.1379 188.952 62.2615C188.952 62.2615 182.926 66.6735 178.869 62.7579C178.077 61.9918 177.531 60.4218 177.236 59.2449C176.599 56.676 177.305 51.0227 181.255 49.5071L181.263 49.4956Z" fill="#74B516"/>
<path d="M182.213 35.1636C179.736 37.622 175.218 45.8696 177.073 58.1735C177.073 58.1735 176.628 52.9158 187.747 45.0954C187.937 44.9611 188.052 44.6875 188.003 44.4017C187.807 43.0351 184.622 36.7664 183.121 35.1893C182.848 34.9016 182.463 34.9073 182.203 35.1653L182.213 35.1636Z" fill="#87D625"/>
<path d="M179.429 63.2395C179.429 63.2395 183.52 63.4246 187.925 60.3181C193.751 56.2147 196.892 66.5974 191.145 70.3053C183.24 75.4054 183.04 76.9285 185.45 82.2353C185.45 82.2353 182.816 81.6414 181.645 79.449C180.003 76.3536 180.181 72.7484 184.207 70.7954C190.332 67.825 189.574 65.3303 188.83 65.4287C183.688 66.0951 180.619 64.2514 179.417 63.2313L179.429 63.2395Z" fill="#87D625"/>
<path d="M186.944 82.6218C186.944 82.6218 191.691 78.676 189.74 76.2023C189.074 75.1852 193.063 74.061 194.163 74.4889C195.331 74.9433 196.178 77.781 195.366 79.8448C193.928 83.5006 186.944 82.6218 186.944 82.6218Z" fill="#87D625"/>
<path d="M94.2394 66.7029L93.3559 68.9647C93.2577 69.2137 93.2774 69.4799 93.405 69.6751L94.5927 71.3742C94.9265 71.8494 94.5044 72.6314 93.8762 72.6935L91.6577 72.9048C91.4123 72.9325 91.1669 73.0802 91.0098 73.3007L89.5766 75.3193C89.1742 75.8875 88.3889 75.8502 88.2514 75.2469L87.7704 73.1204C87.7115 72.8818 87.5447 72.7143 87.3189 72.6581L85.2476 72.2107C84.6685 72.0833 84.6096 71.2748 85.1495 70.8498L87.0735 69.3158C87.2894 69.1439 87.4269 68.8871 87.4465 68.6333L87.6035 66.3328C87.6428 65.6852 88.3889 65.2302 88.86 65.5586L90.5288 66.7342C90.7153 66.8679 90.9705 66.8783 91.2159 66.7706L93.3853 65.7989C93.994 65.5206 94.5142 66.0495 94.2688 66.6872L94.2394 66.7029Z" fill="#FACD34"/>
<path d="M211.16 150.818L209.194 151.919C208.976 152.04 208.822 152.262 208.779 152.51L208.454 154.724C208.365 155.345 207.612 155.638 207.182 155.216L205.669 153.718C205.499 153.556 205.253 153.487 205.018 153.541L202.861 154.041C202.255 154.182 201.789 153.565 202.082 152.991L203.114 150.973C203.227 150.743 203.228 150.487 203.122 150.274L202.113 148.373C201.832 147.84 202.302 147.166 202.904 147.239L205.063 147.485C205.305 147.513 205.551 147.415 205.722 147.232L207.261 145.556C207.691 145.081 208.44 145.285 208.528 145.894L208.83 148.061C208.863 148.305 209.015 148.505 209.235 148.605L211.194 149.473C211.748 149.712 211.74 150.514 211.188 150.828L211.16 150.818Z" fill="#FACD34"/>
<path d="M173.509 17.883L172.665 20.0616C172.572 20.3015 172.591 20.5695 172.712 20.7767L173.846 22.5875C174.165 23.0941 173.762 23.8364 173.162 23.8394L171.045 23.842C170.81 23.8466 170.576 23.9712 170.426 24.177L169.058 26.0608C168.674 26.5911 167.924 26.4799 167.793 25.8637L167.334 23.692C167.278 23.4479 167.119 23.2646 166.903 23.1873L164.926 22.5451C164.373 22.3632 164.317 21.5491 164.832 21.1749L166.669 19.8219C166.875 19.6702 167.006 19.4264 167.025 19.1745L167.175 16.8887C167.212 16.2448 167.924 15.8599 168.374 16.2327L169.967 17.5652C170.145 17.7165 170.389 17.7509 170.623 17.6663L172.694 16.8987C173.275 16.6776 173.771 17.2554 173.537 17.87L173.509 17.883Z" fill="#FACD34"/>
<path d="M66.5865 144.762C67.7365 144.822 71.0265 145.292 73.6965 148.672C74.0065 149.062 73.9765 149.612 73.6165 149.952C72.4865 151.012 70.1665 153.402 69.6265 155.632C69.4965 156.152 68.9465 156.432 68.4365 156.272C67.0865 155.832 64.7565 155.192 63.0865 155.412C62.4865 155.492 61.9965 154.962 62.0665 154.362C62.3465 152.112 63.2065 147.702 65.8765 145.032C66.0665 144.842 66.3265 144.752 66.5865 144.762Z" fill="#87D625"/>
<path d="M192.796 103.652C194.636 104.062 197.306 105.122 198.236 107.812C198.296 107.992 198.316 108.172 198.306 108.362C198.256 109.242 198.066 111.992 197.486 113.862C197.216 114.742 196.146 115.102 195.386 114.592C194.426 113.952 193.016 113.122 191.576 112.722C190.806 112.502 190.346 111.722 190.586 110.952C190.936 109.782 191.266 107.892 191.086 105.142C191.026 104.192 191.876 103.452 192.796 103.662V103.652Z" fill="#4AB6FF"/>
<path d="M71.7813 176.162C73.6617 176.162 75.186 174.591 75.186 172.652C75.186 170.714 73.6617 169.142 71.7813 169.142C69.9008 169.142 68.3765 170.714 68.3765 172.652C68.3765 174.591 69.9008 176.162 71.7813 176.162Z" fill="#D32262"/>
<path d="M154.825 50.7024C156.552 50.7024 157.953 49.2608 157.953 47.4824C157.953 45.7041 156.552 44.2625 154.825 44.2625C153.097 44.2625 151.697 45.7041 151.697 47.4824C151.697 49.2608 153.097 50.7024 154.825 50.7024Z" fill="#4AB4FD"/>
<path d="M114.613 60.6285C114.726 58.8095 113.679 57.2638 112.273 57.1761C110.867 57.0884 109.636 58.4919 109.523 60.3109C109.409 62.1299 110.456 63.6756 111.862 63.7633C113.268 63.851 114.499 62.4475 114.613 60.6285Z" fill="#87D625"/>
<path d="M134.246 27.6924C136.056 27.1424 138.885 26.7337 141.036 28.6124C141.175 28.7337 141.287 28.892 141.366 29.0524C141.757 29.842 142.955 32.3226 143.376 34.2323C143.575 35.1325 142.827 35.9689 141.906 35.9022C140.757 35.8189 139.148 35.9685 137.666 36.1622C136.772 36.2792 135.95 35.3111 135.725 34.343C135.448 33.1545 135.005 32.133 133.486 29.8323C132.965 29.0431 133.326 27.9724 134.236 27.6924C134.24 27.6912 134.243 27.6935 134.246 27.6924Z" fill="#4AB6FF"/>
<path d="M203.441 61.4536C205.166 62.1115 207.125 61.1764 207.815 59.3651C208.506 57.5537 207.667 55.5521 205.942 54.8942C204.216 54.2364 202.258 55.1715 201.567 56.9828C200.876 58.7942 201.715 60.7958 203.441 61.4536Z" fill="#D32262"/>
</svg>
