<svg width="162" height="141" viewBox="0 0 162 141" fill="none" xmlns="http://www.w3.org/2000/svg">
<path opacity="0.1" d="M82.7276 124.718C65.9246 124.718 52.295 126.823 52.295 129.423C52.295 132.022 65.9167 134.128 82.7276 134.128C99.5306 134.128 113.16 132.022 113.16 129.423C113.16 126.823 99.5385 124.718 82.7276 124.718Z" fill="#252A2D"/>
<path d="M71.8059 130.088C69.8439 132.44 63.7119 132.013 62.1459 130.62C61.0239 129.983 60.9639 127.812 62.5239 127.139C65.1459 126.01 65.0079 124.776 66.0699 123.606C68.5119 120.909 69.6879 121.629 70.8099 121.863C73.7559 122.471 73.0659 128.579 71.7999 130.094L71.8059 130.088Z" fill="#868686"/>
<path d="M97.2789 118.685C95.6409 120.247 100.771 127.396 103.027 128.098C106.129 128.97 108.685 126.437 109.465 123.828C110.251 121.219 105.571 117.72 102.283 117.252C98.2989 116.685 98.1009 117.896 97.2729 118.68L97.2789 118.685Z" fill="#868686"/>
<path d="M102.64 113.679C103.33 117.042 103.558 119.183 102.106 120.739C101.956 120.897 101.812 121.032 101.668 121.143C98.542 123.518 89.46 120.781 85.42 117.428C75.1258 108.884 96.5622 96.7381 99.1901 103.418C99.8645 105.132 102.393 112.473 102.64 113.679Z" fill="#BFC2D0"/>
<path d="M68.1759 124.7C65.9499 124.384 64.9761 123.738 62.5119 121.939C59.6181 119.826 54.246 112.024 52.2795 106.965C49.6784 100.274 55.1199 96.4738 66.1119 101.405C75.2079 105.489 76.7499 117.001 72.2619 122.734C71.5179 123.741 69.7659 124.624 68.1699 124.694C68.1666 124.694 68.1759 124.7 68.1759 124.7Z" fill="#BFC2D0"/>
<path d="M49.0086 77.1879C52.4559 83.8236 55.3662 90.6214 59.4886 89.0446C61.667 88.2114 65.8604 84.0985 66.6185 80.8456C67.9074 75.3146 63.1192 69.37 60.4815 66.3577C56.2301 61.5026 48.4891 59.3142 41.9896 60.248C40.777 60.4222 38.178 60.2657 39.9053 62.9785C43.4886 68.6063 45.9764 71.3512 49.0086 77.1879Z" fill="#AAAEBD"/>
<path d="M78.7178 73.9514C78.9938 73.9689 79.2699 73.998 79.5399 74.0331C87.1958 75.0861 93.9456 77.2918 97.7795 84.0952C98.6315 85.6044 99.0454 87.3068 99.0094 89.0266C98.9952 89.7316 99.1343 90.9783 99.3668 92.4943C99.9077 94.9283 101.002 96.9055 104.949 98.7562C106.326 99.4041 107.408 100.11 106.535 103.265C105.661 106.419 103.221 111.053 100.295 113.358C96.3884 116.436 91.4523 117.204 86.4159 118.423C80.6913 119.808 75.7055 119.072 71.7815 118.692C66.5136 118.183 62.7215 117.417 58.6776 115.241C52.5516 111.538 48.0666 99.1185 50.8971 87.9643C54.1483 75.1525 67.4597 73.2395 78.7178 73.9514Z" fill="#BFC2D0"/>
<path d="M55.594 61.3679C58.258 48.7436 71.782 40.8051 85.798 43.6073C99.826 46.427 109.018 58.9284 106.354 71.5469C103.69 84.1595 94.096 89.1495 76.912 86.7042C59.44 84.2238 52.93 73.9805 55.594 61.362V61.3679Z" fill="#BFC2D0"/>
<path opacity="0.25" d="M55.594 61.3679C58.258 48.7436 71.782 40.8051 85.798 43.6073C99.826 46.427 109.018 58.9284 106.354 71.5469C103.69 84.1595 94.096 89.1495 76.912 86.7042C59.44 84.2238 52.93 73.9805 55.594 61.362V61.3679Z" fill="url(#paint0_linear_11_1719)"/>
<mask id="mask0_11_1719" style="mask-type:luminance" maskUnits="userSpaceOnUse" x="55" y="43" width="52" height="45">
<path d="M55.5939 61.3679C58.2579 48.7436 71.7819 40.8051 85.7979 43.6073C99.8259 46.427 109.018 58.9284 106.354 71.5469C103.69 84.1595 94.0959 89.1495 76.9119 86.7042C59.4399 84.2238 52.9299 73.9805 55.5939 61.362V61.3679Z" fill="white"/>
</mask>
<g mask="url(#mask0_11_1719)">
<path d="M73.264 54.0964C73.474 53.4938 73.132 52.7567 72.562 52.2244C71.992 51.6745 71.182 51.2942 70.324 51.1246C69.466 50.9608 68.542 51.0485 67.858 51.3703C67.162 51.6862 66.688 52.201 66.496 52.7567C66.466 52.862 66.544 52.9849 66.676 53.02C66.748 53.0434 66.82 53.0317 66.886 53.0141H66.904C67.504 52.7392 68.026 52.5344 68.554 52.4291C69.082 52.3297 69.604 52.3297 70.12 52.4174C70.648 52.5052 71.17 52.6924 71.632 52.9556C72.1 53.2247 72.52 53.564 72.826 54.0671L72.838 54.0847C72.898 54.1841 73.042 54.2251 73.15 54.19C73.216 54.19 73.258 54.1432 73.27 54.1022L73.264 54.0964Z" fill="#332F35"/>
<path d="M91.078 57.5069C91.288 56.8751 90.964 56.1146 90.406 55.5647C89.848 55.0031 89.062 54.6112 88.216 54.4415C87.37 54.2777 86.464 54.3772 85.786 54.7223C85.096 55.0616 84.628 55.5998 84.43 56.179C84.4 56.2901 84.478 56.413 84.604 56.4481C84.67 56.4715 84.748 56.4598 84.808 56.4364H84.826C85.42 56.1439 85.936 55.9274 86.452 55.8104C86.974 55.7051 87.484 55.6934 87.994 55.7812C88.51 55.8689 89.02 56.0561 89.476 56.3252C89.932 56.6002 90.34 56.9453 90.64 57.4718L90.652 57.4894C90.712 57.5888 90.85 57.6356 90.958 57.5947C91.024 57.5947 91.066 57.5479 91.078 57.5011V57.5069Z" fill="#332F35"/>
<path d="M77.0416 57.5721C78.7215 58.0392 80.1615 59.1399 80.0046 59.5174C79.9532 59.9769 77.5516 61.7516 75.9922 61.2855C74.4322 60.8253 73.3933 58.1902 73.4507 57.7314C73.5249 57.4451 75.4147 57.1165 77.0416 57.5721Z" fill="#FBDD00"/>
<path d="M77.0416 57.5721C78.7215 58.0392 80.1615 59.1399 80.0046 59.5174C79.9532 59.9769 77.5516 61.7516 75.9922 61.2855C74.4322 60.8253 73.3933 58.1902 73.4507 57.7314C73.5249 57.4451 75.4147 57.1165 77.0416 57.5721Z" fill="#040000" fill-opacity="0.45"/>
<path d="M76.5361 56.9651C78.2332 57.387 80.0203 59.4308 79.8753 59.8097C79.8358 60.2704 77.9469 59.0278 76.1344 58.5054C74.3309 57.9016 73.3523 58.2329 73.3918 57.7722C73.4641 57.5033 74.8908 56.5665 76.5295 56.9703L76.5361 56.9651Z" fill="#141315"/>
<path d="M76.1285 57.2631C77.829 57.7089 79.8936 60.0235 79.9211 59.8322C80.4453 58.2756 79.4241 55.8601 77.6103 55.4023C75.949 54.9843 73.5336 57.1518 73.3623 57.6573C73.2605 58.0819 74.6932 56.875 76.1285 57.2631Z" fill="#FBDD00"/>
</g>
<path d="M86.5178 84.5907C86.0362 90.2374 92.5498 93.9291 96.9403 93.4717C106.374 92.4887 109.098 85.4401 114.15 81.145C119.578 76.531 121.494 76.9974 118.434 74.9515C115.33 72.8766 101.448 70.4777 94.3675 74.0456C88.9144 76.7932 86.8336 80.8889 86.5178 84.5907Z" fill="#AAAEBD"/>
<path d="M118.532 111.112C118.616 111.177 118.568 111.311 118.484 111.376C118.094 111.674 116.99 112.434 118.214 112.674L116.129 112.819C116.129 112.819 115.49 111.498 116.792 110.785C116.792 110.785 117.896 110.633 118.532 111.112Z" fill="#B51D5B"/>
<path d="M118.841 108.584C118.841 108.584 115.931 109.497 115.433 108.215C115.067 107.274 116.357 106.946 117.089 107.133C118.343 107.449 118.565 108.063 118.829 108.572C118.829 108.572 120.208 110.937 118.781 112.299C118.781 112.299 122.837 112.704 120.731 107.62C118.931 102.642 112.142 105.284 113.195 108.654C113.99 111.201 118.523 109.508 118.523 109.508" fill="#B51D5B"/>
<path d="M113.292 93.3547C111.654 95.2092 110.19 99.9769 116.334 103.487C121.506 106.441 114.24 109.805 114.24 109.805C114.24 109.805 115.98 110.63 118.428 109.647C120.408 108.851 122.256 104.493 120.228 102.914C116.202 99.7722 112.392 98.0698 118.644 92.9511C118.848 92.7873 118.83 92.4714 118.596 92.3427C118.152 92.097 117.36 91.7986 116.16 91.8103C114.976 91.8219 114.064 92.48 113.292 93.3547Z" fill="#D32262"/>
<path d="M121.106 108.663C121.106 108.663 122.78 114.074 118.592 114.296C117.476 114.355 116.447 113.694 116.069 112.67L116.042 112.585C116.042 112.585 120.146 113.571 121.1 108.669L121.106 108.663Z" fill="#D32262"/>
<path d="M51.9402 27.9C51.9402 27.9 53.1942 30.2517 51.0642 32.0711C51.0642 32.0711 54.2322 32.1413 54.3522 28.4324L51.9462 27.9H51.9402Z" fill="#B51D5B"/>
<path d="M47.8781 28.292C47.8781 28.292 45.4841 26.7944 47.3501 24.9224C49.5761 22.6994 53.6081 25.0277 54.1121 26.8938C54.1121 26.8938 53.8001 27.9059 52.1561 28.3914C52.1561 28.3914 51.1661 26.0046 49.8941 26.5779C49.3901 26.8061 49.7321 27.5198 50.7161 27.8766C50.9441 27.9585 51.2261 28.0346 51.5621 28.0872C51.5621 28.0872 50.0681 29.1403 47.8721 28.2861L47.8781 28.292Z" fill="#B51D5B"/>
<path d="M52.048 1.51059C52.048 1.51059 55.042 1.08354 56.578 2.82684C56.686 2.94969 56.626 3.14274 56.47 3.20124C54.958 3.72189 48.172 7.30209 51.364 12.7133C53.296 15.9952 57.844 17.1769 58.768 22.1611C60.142 29.5496 49.3371 29.6838 47.8011 28.233C47.8011 28.233 57.232 27.9292 55.432 22.5764C53.632 17.2237 45.046 15.4336 46.156 9.15069C47.122 3.66924 52.054 1.51644 52.054 1.51644L52.048 1.51059Z" fill="#D32262"/>
<path d="M54.2726 29.2412C54.2726 29.2412 54.184 34.6802 48.736 34.0952C48.598 34.0835 48.472 34.0191 48.376 33.9255C48.148 33.6974 47.758 33.206 47.65 32.4396C47.614 32.1822 47.854 31.9716 48.112 32.0184C49.384 32.2407 52.81 32.4981 54.226 29.3274L54.2726 29.2412Z" fill="#D32262"/>
<path d="M31.6598 49.6972C31.4138 49.0946 30.9938 47.5034 32.7038 46.1872C32.7758 46.1287 32.8658 46.0994 32.9618 46.1053C33.4538 46.1228 35.0858 46.2574 35.8358 47.3747C35.8898 47.4566 35.8538 47.5619 35.7638 47.597C35.0018 47.8837 32.1578 48.9191 35.0138 50.0833C35.0138 50.0833 33.6878 51.0602 31.9838 50.0774C31.8338 49.9897 31.7198 49.8551 31.6538 49.6972H31.6598Z" fill="#4AB4FD"/>
<path d="M34.8518 37.2542C34.8518 37.2542 33.3878 40.2085 40.1498 42.9872C45.522 45.1986 38.9107 51.9085 35.2658 51.9085C34.7078 51.926 33.2138 51.7681 31.7798 49.9195C31.7798 49.9195 37.6058 49.8317 38.2178 45.8947C38.2178 45.8947 38.8298 43.9525 32.9798 41.1269C32.9798 41.1269 29.9378 37.8158 34.8518 37.2484V37.2542Z" fill="#2BA0E2"/>
<path d="M35.644 32.4281C35.644 32.4281 39.292 32.1531 40.996 33.6624C41.14 33.7911 41.092 34.031 40.9 34.0895C38.806 34.7388 29.3311 38.0114 36.6871 43.37C36.6871 43.37 35.092 42.1391 33.1 41.2791C29.56 39.7581 26.95 35.8445 35.644 32.4339V32.4281Z" fill="#4AB4FD"/>
<path d="M110.202 43.8868C110.202 43.8868 112.152 47.874 114.437 46.5445C114.437 46.5445 113.077 49.7268 110.516 47.5988C110.516 47.5988 108.38 44.6037 110.196 43.8878L110.202 43.8868Z" fill="#74B516"/>
<path d="M108.758 28.9549C108.758 28.9549 107.501 36.3507 113.371 36.423C113.371 36.423 109.756 39.004 107.322 36.7134C106.846 36.2652 106.519 35.3468 106.342 34.6583C105.959 33.1554 106.383 29.8483 108.753 28.9617L108.758 28.9549Z" fill="#74B516"/>
<path d="M109.328 20.5708C107.842 22.009 105.131 26.8338 106.244 34.0316C106.244 34.0316 105.977 30.9559 112.648 26.3809C112.762 26.3023 112.831 26.1423 112.802 25.9751C112.684 25.1756 110.773 21.5085 109.872 20.5858C109.709 20.4175 109.478 20.4208 109.322 20.5718L109.328 20.5708Z" fill="#87D625"/>
<path d="M107.657 36.9952C107.657 36.9952 110.112 37.1034 112.755 35.2861C116.251 32.8857 118.135 38.9596 114.687 41.1287C109.944 44.1122 109.824 45.0032 111.27 48.1077C111.27 48.1077 109.69 47.7603 108.987 46.4777C108.002 44.6669 108.108 42.5579 110.524 41.4154C114.199 39.6777 113.744 38.2183 113.298 38.2758C110.213 38.6657 108.371 37.5871 107.65 36.9904L107.657 36.9952Z" fill="#87D625"/>
<path d="M112.166 48.3338C112.166 48.3338 115.014 46.0255 113.844 44.5784C113.445 43.9834 115.838 43.3257 116.498 43.576C117.199 43.8419 117.707 45.502 117.22 46.7093C116.357 48.8479 112.166 48.3338 112.166 48.3338Z" fill="#87D625"/>
<path d="M56.5436 39.0213L56.0135 40.3444C55.9546 40.4901 55.9664 40.6459 56.043 40.7601L56.7556 41.754C56.9559 42.032 56.7026 42.4895 56.3257 42.5258L54.9946 42.6494C54.8473 42.6656 54.7001 42.752 54.6059 42.881L53.746 44.0619C53.5045 44.3943 53.0333 44.3724 52.9508 44.0195L52.6622 42.7755C52.6269 42.636 52.5268 42.5379 52.3913 42.5051L51.1486 42.2434C50.8011 42.1689 50.7657 41.6958 51.0897 41.4473L52.2441 40.5499C52.3736 40.4493 52.4561 40.2991 52.4679 40.1506L52.5621 38.8048C52.5857 38.4259 53.0333 38.1597 53.316 38.3519L54.3173 39.0396C54.4292 39.1178 54.5823 39.1239 54.7295 39.0609L56.0312 38.4925C56.3963 38.3297 56.7085 38.6391 56.5613 39.0121L56.5436 39.0213Z" fill="#FACD34"/>
<path d="M126.696 88.2284L125.516 88.8726C125.386 88.9432 125.293 89.0732 125.267 89.2182L125.073 90.5138C125.019 90.8768 124.567 91.0485 124.309 90.8014L123.401 89.9251C123.299 89.8302 123.152 89.79 123.011 89.8217L121.717 90.114C121.353 90.1968 121.074 89.8355 121.249 89.5001L121.868 88.3193C121.936 88.1847 121.937 88.0351 121.873 87.9106L121.268 86.7985C121.099 86.4865 121.381 86.0919 121.743 86.1348L123.038 86.2786C123.183 86.2949 123.331 86.238 123.433 86.1309L124.356 85.1505C124.614 84.8724 125.064 84.9919 125.117 85.3482L125.298 86.616C125.318 86.7588 125.409 86.8754 125.541 86.9338L126.717 87.4417C127.049 87.5816 127.044 88.0509 126.713 88.2342L126.696 88.2284Z" fill="#FACD34"/>
<path d="M104.105 10.4616L103.599 11.7361C103.543 11.8764 103.554 12.0332 103.627 12.1544L104.308 13.2138C104.499 13.5101 104.257 13.9443 103.897 13.9461L102.627 13.9476C102.486 13.9503 102.346 14.0232 102.256 14.1436L101.435 15.2456C101.204 15.5559 100.755 15.4908 100.676 15.1303L100.4 13.8599C100.367 13.7171 100.271 13.6099 100.142 13.5646L98.9557 13.1889C98.624 13.0825 98.5902 12.6063 98.8994 12.3874L100.001 11.5959C100.125 11.5071 100.204 11.3645 100.215 11.2171L100.305 9.87995C100.327 9.50324 100.755 9.27811 101.024 9.49616L101.98 10.2757C102.087 10.3642 102.233 10.3843 102.374 10.3348L103.616 9.88577C103.965 9.75645 104.263 10.0945 104.122 10.454L104.105 10.4616Z" fill="#FACD34"/>
<path d="M39.9518 84.686C40.6418 84.7211 42.6158 84.996 44.2178 86.9733C44.4038 87.2015 44.3858 87.5232 44.1698 87.7221C43.4918 88.3422 42.0998 89.7404 41.7758 91.0449C41.6978 91.3491 41.3678 91.5129 41.0618 91.4193C40.2518 91.1619 38.8538 90.7875 37.8518 90.9162C37.4918 90.963 37.1978 90.653 37.2398 90.302C37.4078 88.9857 37.9238 86.4059 39.5258 84.8439C39.6398 84.7328 39.7958 84.6801 39.9518 84.686Z" fill="#87D625"/>
<path d="M115.678 60.6367C116.782 60.8765 118.384 61.4966 118.942 63.0703C118.978 63.1756 118.99 63.2809 118.984 63.392C118.954 63.9068 118.84 65.5156 118.492 66.6095C118.33 67.1243 117.688 67.3349 117.232 67.0366C116.656 66.6622 115.81 66.1766 114.946 65.9426C114.484 65.8139 114.208 65.3576 114.352 64.9072C114.562 64.2227 114.76 63.1171 114.652 61.5083C114.616 60.9526 115.126 60.5197 115.678 60.6425V60.6367Z" fill="#4AB6FF"/>
<path d="M43.0688 103.055C44.197 103.055 45.1116 102.136 45.1116 101.002C45.1116 99.8676 44.197 98.9483 43.0688 98.9483C41.9405 98.9483 41.0259 99.8676 41.0259 101.002C41.0259 102.136 41.9405 103.055 43.0688 103.055Z" fill="#D32262"/>
<path d="M92.8948 29.6609C93.9313 29.6609 94.7716 28.8175 94.7716 27.7772C94.7716 26.7369 93.9313 25.8935 92.8948 25.8935C91.8583 25.8935 91.0181 26.7369 91.0181 27.7772C91.0181 28.8175 91.8583 29.6609 92.8948 29.6609Z" fill="#4AB4FD"/>
<path d="M68.7676 35.4676C68.8357 34.4035 68.2072 33.4993 67.3638 33.448C66.5205 33.3967 65.7816 34.2177 65.7135 35.2819C65.6454 36.346 66.2739 37.2502 67.1172 37.3015C67.9606 37.3528 68.6995 36.5318 68.7676 35.4676Z" fill="#87D625"/>
<path d="M80.5479 16.2C81.6339 15.8783 83.3312 15.6392 84.6218 16.7382C84.7052 16.8092 84.7722 16.9018 84.8198 16.9956C85.0542 17.4576 85.773 18.9087 86.0258 20.0259C86.145 20.5525 85.696 21.0418 85.1438 21.0028C84.454 20.954 83.4887 21.0415 82.5999 21.1549C82.0634 21.2233 81.5701 20.657 81.4348 20.0906C81.2687 19.3954 81.0032 18.7978 80.0919 17.4519C79.7793 16.9902 79.9959 16.3638 80.5419 16.2C80.5441 16.1994 80.5457 16.2007 80.5479 16.2Z" fill="#4AB6FF"/>
<path d="M122.064 35.9504C123.1 36.3352 124.275 35.7882 124.689 34.7285C125.103 33.6689 124.6 32.4979 123.565 32.1131C122.53 31.7283 121.355 32.2753 120.94 33.3349C120.526 34.3946 121.029 35.5655 122.064 35.9504Z" fill="#D32262"/>
<defs>
<linearGradient id="paint0_linear_11_1719" x1="89.727" y1="44.8424" x2="74.2766" y2="84.6141" gradientUnits="userSpaceOnUse">
<stop stop-color="white"/>
<stop offset="1" stop-color="white" stop-opacity="0"/>
</linearGradient>
</defs>
</svg>
