<svg width="36" height="36" viewBox="0 0 36 36" fill="none" xmlns="http://www.w3.org/2000/svg">
<g clip-path="url(#clip0_11_2090)">
<path d="M11.626 7.48805C11.514 7.60005 11.429 7.73505 11.358 7.88305L11.35 7.87505L0.134001 33.1411L0.145001 33.1521C-0.0629987 33.5551 0.285001 34.3751 0.998001 35.0891C1.711 35.8021 2.531 36.1501 2.934 35.9421L2.944 35.9521L28.21 24.7351L28.202 24.7261C28.349 24.6561 28.484 24.5711 28.597 24.4571C30.159 22.8951 27.626 17.8301 22.941 13.1441C18.254 8.45805 13.189 5.92605 11.626 7.48805Z" fill="#415D80"/>
<path d="M13 12L0.416001 32.506L0.134001 33.141L0.145001 33.152C-0.0629987 33.555 0.285001 34.375 0.998001 35.089C1.23 35.321 1.471 35.497 1.707 35.646L17 17L13 12Z" fill="#EA596E"/>
<path d="M23.012 13.066C27.682 17.738 30.275 22.718 28.801 24.19C27.328 25.664 22.348 23.072 17.675 18.402C13.004 13.73 10.412 8.74805 11.885 7.27505C13.359 5.80205 18.339 8.39405 23.012 13.066Z" fill="#C2C9CE"/>
<path d="M18.59 13.6091C18.391 13.7701 18.131 13.8541 17.856 13.8241C16.988 13.7301 16.258 13.4281 15.747 12.9511C15.206 12.4461 14.939 11.7681 15.012 11.0891C15.14 9.89705 16.336 8.80305 18.375 9.02305C19.168 9.10805 19.522 8.85305 19.534 8.73105C19.548 8.61005 19.257 8.28505 18.464 8.19905C17.596 8.10505 16.866 7.80305 16.354 7.32605C15.813 6.82105 15.545 6.14305 15.619 5.46405C15.749 4.27205 16.944 3.17805 18.981 3.39905C19.559 3.46105 19.864 3.34205 19.993 3.26505C20.096 3.20205 20.137 3.14205 20.141 3.10705C20.153 2.98605 19.866 2.66105 19.071 2.57505C18.522 2.51505 18.124 2.02305 18.185 1.47305C18.244 0.924052 18.735 0.527052 19.286 0.587052C21.323 0.806052 22.259 2.12905 22.13 3.32205C22 4.51605 20.805 5.60805 18.766 5.38905C18.188 5.32605 17.886 5.44605 17.756 5.52305C17.653 5.58505 17.611 5.64605 17.607 5.68005C17.594 5.80205 17.883 6.12605 18.678 6.21205C20.715 6.43205 21.651 7.75405 21.522 8.94705C21.393 10.1391 20.198 11.2331 18.16 11.0121C17.582 10.9501 17.278 11.0701 17.148 11.1461C17.044 11.2101 17.004 11.2701 17 11.3041C16.987 11.4251 17.276 11.7501 18.07 11.8361C18.618 11.8961 19.017 12.3891 18.956 12.9381C18.928 13.2121 18.789 13.4491 18.59 13.6091Z" fill="#EFF3F6"/>
<path d="M30.661 22.857C32.634 22.3 33.995 23.18 34.319 24.335C34.643 25.489 33.941 26.95 31.969 27.505C31.199 27.721 30.968 28.089 30.999 28.206C31.033 28.324 31.424 28.518 32.192 28.301C34.164 27.746 35.525 28.626 35.849 29.78C36.175 30.935 35.471 32.394 33.498 32.95C32.729 33.166 32.497 33.535 32.531 33.652C32.564 33.769 32.954 33.963 33.723 33.747C34.253 33.598 34.807 33.907 34.956 34.438C35.104 34.97 34.795 35.522 34.263 35.672C32.292 36.227 30.93 35.349 30.604 34.193C30.28 33.039 30.983 31.58 32.957 31.024C33.727 30.807 33.958 30.44 33.924 30.322C33.892 30.205 33.502 30.01 32.734 30.226C30.76 30.782 29.4 29.904 29.075 28.747C28.75 27.593 29.453 26.134 31.426 25.577C32.194 25.362 32.425 24.992 32.393 24.876C32.359 24.758 31.97 24.564 31.201 24.78C30.669 24.93 30.118 24.62 29.968 24.089C29.819 23.559 30.129 23.007 30.661 22.857Z" fill="#C2C9CE"/>
<path d="M23.001 20.1601C22.707 20.1601 22.417 20.0311 22.219 19.7851C21.874 19.3531 21.945 18.7241 22.375 18.3791C22.593 18.2041 27.793 14.1201 35.142 15.1711C35.689 15.2491 36.069 15.7551 35.991 16.3021C35.913 16.8481 35.411 17.2321 34.859 17.1501C28.366 16.2281 23.672 19.9041 23.626 19.9411C23.44 20.0891 23.22 20.1601 23.001 20.1601Z" fill="#DBE4E9"/>
<path d="M5.75397 16C5.65897 16 5.56197 15.986 5.46597 15.958C4.93697 15.799 4.63697 15.242 4.79597 14.713C5.92897 10.94 6.95597 4.91897 5.69397 3.34897C5.55297 3.17097 5.33997 2.99597 4.85197 3.03297C3.91397 3.10497 4.00297 5.08397 4.00397 5.10397C4.04597 5.65497 3.63197 6.13497 3.08197 6.17597C2.52297 6.20997 2.05097 5.80397 2.00997 5.25297C1.90697 3.87397 2.33597 1.21797 4.70197 1.03897C5.75797 0.958968 6.63497 1.32597 7.25397 2.09597C9.62497 5.04697 7.21797 13.602 6.71197 15.288C6.58197 15.721 6.18397 16 5.75397 16Z" fill="#77B255"/>
<path d="M25.5 11C26.3284 11 27 10.3284 27 9.5C27 8.67157 26.3284 8 25.5 8C24.6716 8 24 8.67157 24 9.5C24 10.3284 24.6716 11 25.5 11Z" fill="#5C913B"/>
<path d="M2 20C3.10457 20 4 19.1046 4 18C4 16.8954 3.10457 16 2 16C0.89543 16 0 16.8954 0 18C0 19.1046 0.89543 20 2 20Z" fill="#9266CC"/>
<path d="M32.5 21C33.3284 21 34 20.3284 34 19.5C34 18.6716 33.3284 18 32.5 18C31.6716 18 31 18.6716 31 19.5C31 20.3284 31.6716 21 32.5 21Z" fill="#5C913B"/>
<path d="M23.5 33C24.3284 33 25 32.3284 25 31.5C25 30.6716 24.3284 30 23.5 30C22.6716 30 22 30.6716 22 31.5C22 32.3284 22.6716 33 23.5 33Z" fill="#5C913B"/>
<path d="M28 6C29.1046 6 30 5.10457 30 4C30 2.89543 29.1046 2 28 2C26.8954 2 26 2.89543 26 4C26 5.10457 26.8954 6 28 6Z" fill="#FFCC4D"/>
<path d="M32.5 10C33.3284 10 34 9.32843 34 8.5C34 7.67157 33.3284 7 32.5 7C31.6716 7 31 7.67157 31 8.5C31 9.32843 31.6716 10 32.5 10Z" fill="#FFCC4D"/>
<path d="M29.5 14C30.3284 14 31 13.3284 31 12.5C31 11.6716 30.3284 11 29.5 11C28.6716 11 28 11.6716 28 12.5C28 13.3284 28.6716 14 29.5 14Z" fill="#FFCC4D"/>
<path d="M7.5 25C8.32843 25 9 24.3284 9 23.5C9 22.6716 8.32843 22 7.5 22C6.67157 22 6 22.6716 6 23.5C6 24.3284 6.67157 25 7.5 25Z" fill="#FFCC4D"/>
</g>
<defs>
<clipPath id="clip0_11_2090">
<rect width="36" height="36" fill="white"/>
</clipPath>
</defs>
</svg>
